<?xml version="1.0" encoding="utf-8"?>
<!-- Svg Vector Icons : http://www.onlinewebfonts.com/icon -->
<!DOCTYPE svg PUBLIC "-//W3C//DTD SVG 1.1//EN" "http://www.w3.org/Graphics/SVG/1.1/DTD/svg11.dtd">
<svg version="1.1" xmlns="http://www.w3.org/2000/svg" xmlns:xlink="http://www.w3.org/1999/xlink" x="0px" y="0px" viewBox="0 0 1000 1000" enable-background="new 0 0 1000 1000" xml:space="preserve">
<metadata> Svg Vector Icons : http://www.onlinewebfonts.com/icon </metadata>
<g><path d="M277.2,767.2h133.6L232.8,945.4L54.6,767.2h133.6V54.6h89V767.2z M544.6,636.5h289.6L544.6,940.8V990H901v-47.3H610.3L901,636.5v-47.3H544.6V636.5z M566.9,455.4H500L682.8,10h67.8l194.8,445.4h-71.8l-55.5-134.9H619.2L566.9,455.4z M637.4,272.6h161.4l-49.7-123.4c-15.2-37.4-26.4-68.3-33.8-92.3c-6,28.6-14.6,56.9-25.6,85.1L637.4,272.6z"/></g>
</svg>