<svg id="visual" viewBox="0 0 900 450" width="900" height="450" xmlns="http://www.w3.org/2000/svg" xmlns:xlink="http://www.w3.org/1999/xlink" version="1.1"><path d="M0 143L21.5 142.8C43 142.7 86 142.3 128.8 143.7C171.7 145 214.3 148 257.2 149.5C300 151 343 151 385.8 146.5C428.7 142 471.3 133 514.2 137.7C557 142.3 600 160.7 642.8 159.5C685.7 158.3 728.3 137.7 771.2 134C814 130.3 857 143.7 878.5 150.3L900 157L900 0L878.5 0C857 0 814 0 771.2 0C728.3 0 685.7 0 642.8 0C600 0 557 0 514.2 0C471.3 0 428.7 0 385.8 0C343 0 300 0 257.2 0C214.3 0 171.7 0 128.8 0C86 0 43 0 21.5 0L0 0Z" fill="#064631"></path><path d="M0 92L21.5 97C43 102 86 112 128.8 117.2C171.7 122.3 214.3 122.7 257.2 125.5C300 128.3 343 133.7 385.8 133.5C428.7 133.3 471.3 127.7 514.2 120C557 112.3 600 102.7 642.8 100.7C685.7 98.7 728.3 104.3 771.2 108.8C814 113.3 857 116.7 878.5 118.3L900 120L900 0L878.5 0C857 0 814 0 771.2 0C728.3 0 685.7 0 642.8 0C600 0 557 0 514.2 0C471.3 0 428.7 0 385.8 0C343 0 300 0 257.2 0C214.3 0 171.7 0 128.8 0C86 0 43 0 21.5 0L0 0Z" fill="#076144"></path><path d="M0 67L21.5 70.7C43 74.3 86 81.7 128.8 84.5C171.7 87.3 214.3 85.7 257.2 90.7C300 95.7 343 107.3 385.8 105.8C428.7 104.3 471.3 89.7 514.2 80.8C557 72 600 69 642.8 73.7C685.7 78.3 728.3 90.7 771.2 96.7C814 102.7 857 102.3 878.5 102.2L900 102L900 0L878.5 0C857 0 814 0 771.2 0C728.3 0 685.7 0 642.8 0C600 0 557 0 514.2 0C471.3 0 428.7 0 385.8 0C343 0 300 0 257.2 0C214.3 0 171.7 0 128.8 0C86 0 43 0 21.5 0L0 0Z" fill="#097d58"></path><path d="M0 75L21.5 69.3C43 63.7 86 52.3 128.8 51.5C171.7 50.7 214.3 60.3 257.2 62.2C300 64 343 58 385.8 60.8C428.7 63.7 471.3 75.3 514.2 73.7C557 72 600 57 642.8 53.2C685.7 49.3 728.3 56.7 771.2 61C814 65.3 857 66.7 878.5 67.3L900 68L900 0L878.5 0C857 0 814 0 771.2 0C728.3 0 685.7 0 642.8 0C600 0 557 0 514.2 0C471.3 0 428.7 0 385.8 0C343 0 300 0 257.2 0C214.3 0 171.7 0 128.8 0C86 0 43 0 21.5 0L0 0Z" fill="#0c9a6c"></path><path d="M0 21L21.5 22.3C43 23.7 86 26.3 128.8 30C171.7 33.7 214.3 38.3 257.2 39.3C300 40.3 343 37.7 385.8 37.2C428.7 36.7 471.3 38.3 514.2 37.2C557 36 600 32 642.8 33.5C685.7 35 728.3 42 771.2 46C814 50 857 51 878.5 51.5L900 52L900 0L878.5 0C857 0 814 0 771.2 0C728.3 0 685.7 0 642.8 0C600 0 557 0 514.2 0C471.3 0 428.7 0 385.8 0C343 0 300 0 257.2 0C214.3 0 171.7 0 128.8 0C86 0 43 0 21.5 0L0 0Z" fill="#10b981"></path></svg>