<svg id="visual" viewBox="0 0 900 600" width="900" height="600" xmlns="http://www.w3.org/2000/svg" xmlns:xlink="http://www.w3.org/1999/xlink" version="1.1"><rect x="0" y="0" width="900" height="600" fill="#1d2025"></rect><path d="M0 246L21.5 243C43 240 86 234 128.8 232.7C171.7 231.3 214.3 234.7 257.2 229.3C300 224 343 210 385.8 209.8C428.7 209.7 471.3 223.3 514.2 225.7C557 228 600 219 642.8 217C685.7 215 728.3 220 771.2 225C814 230 857 235 878.5 237.5L900 240L900 0L878.5 0C857 0 814 0 771.2 0C728.3 0 685.7 0 642.8 0C600 0 557 0 514.2 0C471.3 0 428.7 0 385.8 0C343 0 300 0 257.2 0C214.3 0 171.7 0 128.8 0C86 0 43 0 21.5 0L0 0Z" fill="#064631"></path><path d="M0 178L21.5 179.2C43 180.3 86 182.7 128.8 181.8C171.7 181 214.3 177 257.2 175.3C300 173.7 343 174.3 385.8 178.3C428.7 182.3 471.3 189.7 514.2 184.7C557 179.7 600 162.3 642.8 163.2C685.7 164 728.3 183 771.2 179.3C814 175.7 857 149.3 878.5 136.2L900 123L900 0L878.5 0C857 0 814 0 771.2 0C728.3 0 685.7 0 642.8 0C600 0 557 0 514.2 0C471.3 0 428.7 0 385.8 0C343 0 300 0 257.2 0C214.3 0 171.7 0 128.8 0C86 0 43 0 21.5 0L0 0Z" fill="#076144"></path><path d="M0 121L21.5 123.8C43 126.7 86 132.3 128.8 135.2C171.7 138 214.3 138 257.2 130.2C300 122.3 343 106.7 385.8 105C428.7 103.3 471.3 115.7 514.2 118C557 120.3 600 112.7 642.8 117.3C685.7 122 728.3 139 771.2 147.7C814 156.3 857 156.7 878.5 156.8L900 157L900 0L878.5 0C857 0 814 0 771.2 0C728.3 0 685.7 0 642.8 0C600 0 557 0 514.2 0C471.3 0 428.7 0 385.8 0C343 0 300 0 257.2 0C214.3 0 171.7 0 128.8 0C86 0 43 0 21.5 0L0 0Z" fill="#097d58"></path><path d="M0 111L21.5 106.3C43 101.7 86 92.3 128.8 85.2C171.7 78 214.3 73 257.2 76.7C300 80.3 343 92.7 385.8 93.8C428.7 95 471.3 85 514.2 79.8C557 74.7 600 74.3 642.8 81C685.7 87.7 728.3 101.3 771.2 106.3C814 111.3 857 107.7 878.5 105.8L900 104L900 0L878.5 0C857 0 814 0 771.2 0C728.3 0 685.7 0 642.8 0C600 0 557 0 514.2 0C471.3 0 428.7 0 385.8 0C343 0 300 0 257.2 0C214.3 0 171.7 0 128.8 0C86 0 43 0 21.5 0L0 0Z" fill="#0c9a6c"></path><path d="M0 56L21.5 58.7C43 61.3 86 66.7 128.8 68.2C171.7 69.7 214.3 67.3 257.2 60.5C300 53.7 343 42.3 385.8 43.8C428.7 45.3 471.3 59.7 514.2 62.7C557 65.7 600 57.3 642.8 56.3C685.7 55.3 728.3 61.7 771.2 62.2C814 62.7 857 57.3 878.5 54.7L900 52L900 0L878.5 0C857 0 814 0 771.2 0C728.3 0 685.7 0 642.8 0C600 0 557 0 514.2 0C471.3 0 428.7 0 385.8 0C343 0 300 0 257.2 0C214.3 0 171.7 0 128.8 0C86 0 43 0 21.5 0L0 0Z" fill="#10b981"></path></svg>