<svg id="visual" viewBox="0 0 900 600" width="900" height="600" xmlns="http://www.w3.org/2000/svg" xmlns:xlink="http://www.w3.org/1999/xlink" version="1.1"><rect x="0" y="0" width="900" height="600" fill="#1d2025"></rect><path d="M0 217L21.5 221.2C43 225.3 86 233.7 128.8 228C171.7 222.3 214.3 202.7 257.2 193.2C300 183.7 343 184.3 385.8 192.3C428.7 200.3 471.3 215.7 514.2 213.8C557 212 600 193 642.8 179.8C685.7 166.7 728.3 159.3 771.2 161.2C814 163 857 174 878.5 179.5L900 185L900 0L878.5 0C857 0 814 0 771.2 0C728.3 0 685.7 0 642.8 0C600 0 557 0 514.2 0C471.3 0 428.7 0 385.8 0C343 0 300 0 257.2 0C214.3 0 171.7 0 128.8 0C86 0 43 0 21.5 0L0 0Z" fill="#064631"></path><path d="M0 169L21.5 174C43 179 86 189 128.8 192.8C171.7 196.7 214.3 194.3 257.2 193.5C300 192.7 343 193.3 385.8 187C428.7 180.7 471.3 167.3 514.2 163.7C557 160 600 166 642.8 174C685.7 182 728.3 192 771.2 190.5C814 189 857 176 878.5 169.5L900 163L900 0L878.5 0C857 0 814 0 771.2 0C728.3 0 685.7 0 642.8 0C600 0 557 0 514.2 0C471.3 0 428.7 0 385.8 0C343 0 300 0 257.2 0C214.3 0 171.7 0 128.8 0C86 0 43 0 21.5 0L0 0Z" fill="#076144"></path><path d="M0 117L21.5 119.2C43 121.3 86 125.7 128.8 129.5C171.7 133.3 214.3 136.7 257.2 131.3C300 126 343 112 385.8 106C428.7 100 471.3 102 514.2 101.2C557 100.3 600 96.7 642.8 101.8C685.7 107 728.3 121 771.2 130.2C814 139.3 857 143.7 878.5 145.8L900 148L900 0L878.5 0C857 0 814 0 771.2 0C728.3 0 685.7 0 642.8 0C600 0 557 0 514.2 0C471.3 0 428.7 0 385.8 0C343 0 300 0 257.2 0C214.3 0 171.7 0 128.8 0C86 0 43 0 21.5 0L0 0Z" fill="#097d58"></path><path d="M0 113L21.5 107.3C43 101.7 86 90.3 128.8 86.5C171.7 82.7 214.3 86.3 257.2 86.8C300 87.3 343 84.7 385.8 89.3C428.7 94 471.3 106 514.2 110.7C557 115.3 600 112.7 642.8 103.5C685.7 94.3 728.3 78.7 771.2 76.5C814 74.3 857 85.7 878.5 91.3L900 97L900 0L878.5 0C857 0 814 0 771.2 0C728.3 0 685.7 0 642.8 0C600 0 557 0 514.2 0C471.3 0 428.7 0 385.8 0C343 0 300 0 257.2 0C214.3 0 171.7 0 128.8 0C86 0 43 0 21.5 0L0 0Z" fill="#0c9a6c"></path><path d="M0 72L21.5 69.3C43 66.7 86 61.3 128.8 55.8C171.7 50.3 214.3 44.7 257.2 42.7C300 40.7 343 42.3 385.8 42C428.7 41.7 471.3 39.3 514.2 38.8C557 38.3 600 39.7 642.8 44.5C685.7 49.3 728.3 57.7 771.2 55.8C814 54 857 42 878.5 36L900 30L900 0L878.5 0C857 0 814 0 771.2 0C728.3 0 685.7 0 642.8 0C600 0 557 0 514.2 0C471.3 0 428.7 0 385.8 0C343 0 300 0 257.2 0C214.3 0 171.7 0 128.8 0C86 0 43 0 21.5 0L0 0Z" fill="#10b981"></path></svg>